<svg fill="currentColor" xmlns="http://www.w3.org/2000/svg" xmlns:xlink="http://www.w3.org/1999/xlink" xmlns:inkscape="http://www.inkscape.org/namespaces/inkscape" version="1.1" viewBox="0 0 716.3542 148.93308">
<defs>
<clipPath id="clip_1">
<path transform="matrix(1,0,0,-1,-212.20209,497.6211)" d="M212.20209 348.68803H928.5563V497.6211H212.20209Z" clip-rule="evenodd"/>
</clipPath>
<clipPath id="clip_2">
<path transform="matrix(1,0,0,-1,-212.20209,497.6211)" d="M0 841.89H1190.551V0H0Z"/>
</clipPath>
</defs>
<g clip-path="url(#clip_1)">
<g inkscape:groupmode="layer" inkscape:label="&#x30EC;&#x30A4;&#x30E4;&#x30FC; 1">
<g clip-path="url(#clip_2)">
<path transform="matrix(1,0,0,-1,148.9678,109.03409)" d="M0 0C2.828-2.147 11.989-10.163 15.269-13.313 16.173-14.314 16.513-15.03 16.513-16.176 16.513-16.892 16.06-25.193 14.816-25.193 14.364-25.193 14.25-24.907 12.78-21.758 9.387-14.601 1.131-4.295-.905-1.718ZM-39.811 7.872C-36.078 5.01-29.066-1.432-27.482-3.007-26.691-3.865-26.465-4.437-26.465-5.297-26.465-5.583-26.917-13.886-28.274-13.886-28.614-13.886-29.292-12.311-29.631-11.595-32.798-4.295-37.209 1.86-40.715 6.584ZM-21.602 61.837C-17.756 73.718-17.756 75.579-17.643 78.585H-49.197C-47.614 76.724-40.376 67.992-40.376 66.704-40.376 66.131-41.281 63.412-41.733 61.837ZM-53.834 4.294-46.031-2.72V-3.722C-48.406-5.153-48.971-6.585-48.971-10.593V-15.03C-48.971-17.607-48.971-20.184-46.144-21.186-41.733-22.617-29.519-22.76-26.578-22.76-19.679-22.76-13.911-22.76-12.44-20.327-11.988-19.468-11.423-18.752-11.423-11.738V-.287H-9.5C-9.387-.859-8.708-11.452-7.012-19.468-6.786-20.47-5.089-25.193-5.089-25.479-5.089-26.625-6.56-26.769-7.012-26.911-12.78-27.913-20.357-28.057-26.352-28.057-51.912-28.057-53.156-26.481-53.156-15.174V-9.877C-53.156-3.722-53.495-.716-54.853 2.862ZM-56.097 14.313H-5.9939997V27.196H-56.097ZM-56.097 30.775H-5.9939997V43.228H-56.097ZM-6.56 46.807-4.185 51.674C-3.958 52.104-3.845 52.39-3.506 52.39-3.393 52.39-3.054 52.247-2.827 51.96L2.149 46.807C2.262 46.664 2.488 46.378 2.488 46.091 2.488 45.662 2.375 45.519 2.036 45.232L-1.696 41.94V29.63C-1.696 26.91-1.47 13.598-1.47 12.31-1.47 7.729-4.297 2.72-4.637 2.72-4.976 2.72-5.089 3.148-5.315 3.578L-7.917 10.735H-56.209C-56.209 8.731-56.436 2.72-57.341 2.72-58.472 2.72-61.638 12.883-62.317 15.029-60.847 17.177-60.281 18.751-60.281 23.188V37.933C-60.281 44.517-60.621 47.952-62.317 51.817L-61.299 53.105-55.192 46.807ZM-67.52 3.006C-67.52-15.174-75.775-26.911-76.341-26.911-76.567-26.911-76.567-26.195-76.68-25.193-77.133-21.042-77.812-19.182-78.377-17.75-76.002-15.603-70.573-10.879-69.442 3.292ZM-11.31 72.573-11.536 71.714C-14.477 70.999-14.929 69.997-19 61.837H7.465L10.405 66.704C10.857 67.563 11.084 67.849 11.536 67.849 11.875 67.849 12.102 67.706 12.667 67.133L18.774 60.549C19.227 60.12 19.453 59.833 19.453 59.261 19.453 58.259 18.548 58.259 18.209 58.259H-69.329C-75.889 58.259-78.49 57.543-80.073 57.113L-83.127 61.837H-44.787C-45.013 62.982-46.483 69.567-51.007 77.297L-49.989 78.585H-59.15C-65.71 78.585-68.198 77.869-69.895 77.44L-72.835 82.164H-33.477V88.175C-33.477 93.901-33.703 96.764-35.06 100.629L-34.155 101.631-26.578 95.333V94.474C-28.5 93.042-29.292 92.041-29.292 87.316V82.164H0L2.941 87.03C3.506 87.889 3.732 88.175 4.072 88.175 4.524 88.175 4.75 87.889 5.203 87.316L11.423 80.875C11.762 80.446 11.989 80.016 11.989 79.444 11.989 78.585 11.084 78.585 10.745 78.585H-14.815Z"/>
<path transform="matrix(1,0,0,-1,390.0948,24.866608)" d="M0 0C1.922-2.72 8.821-12.74 8.821-14.601 8.821-15.459 6.446-21.471 5.768-21.471 5.315-21.471 4.298-16.461 3.506-13.885 2.148-9.59 .452-5.583-1.471-1.288ZM-22.281-75.006H-40.037004V-92.326H-22.281ZM-22.281-55.682H-40.037004V-71.428H-22.281ZM-41.168-13.599C-34.382-26.481-34.043-27.054-34.043-28.199-34.043-29.774-36.87-34.498-37.549-34.498-37.888-34.498-37.888-34.068-38.454-30.346-39.132-25.766-41.733-17.606-42.751-14.601ZM-21.828-48.382C-21.489-47.81-20.923-46.808-20.471-46.808-20.019-46.808-19.227-47.523-18.548-48.096L-15.947-50.386C-15.382-50.959-14.59-51.818-14.59-52.39-14.59-52.962-15.269-53.535-15.721-53.964L-17.983-56.255C-17.983-62.124-17.757-88.462-17.757-93.758-17.757-99.914-20.923-103.779-21.149-103.779-21.602-103.779-21.715-103.492-22.281-101.345L-23.751-95.906H-40.037C-40.037-99.055-40.263-109.218-41.507-109.218-42.525-109.218-45.579-99.484-46.483-96.335-45.692-95.19-45.013-93.472-44.787-91.754-44.222-88.176-44.108-72.574-44.108-68.422-44.108-63.555-44.108-53.822-46.257-47.237L-44.787-45.949-40.263-52.104H-23.525ZM-23.864-113.083C-12.78-99.198-9.5-92.327-5.769-84.741-8.709-73.29-9.274-62.553-9.614-40.223H-40.716C-47.615-40.223-50.216-41.082-51.46-41.368L-54.514-36.645H-28.162C-25.561-23.332-25.447-19.61-25.447-17.177-25.447-15.173-25.561-13.885-26.013-11.595L-25.561-11.165H-35.287C-41.847-11.165-44.561-11.881-46.031-12.31L-49.085-7.586H-33.478V1.861C-33.478 8.732-33.478 12.597-34.608 15.316L-33.59 16.604-26.691 11.022V10.306C-29.066 8.016-29.18 6.871-29.18 1.288V-7.586H-21.828L-19.566-3.865C-19.114-3.149-18.774-2.577-18.322-2.577-17.87-2.577-17.304-3.292-16.852-3.722L-12.554-8.588C-11.649-9.59-11.31-10.02-11.31-10.306-11.31-11.165-12.215-11.165-13.12-11.165H-24.203L-18.322-18.179-18.436-19.038C-21.602-21.042-21.602-21.328-25.447-36.645H-9.727C-9.84-30.776-9.953-1.288-10.179 5.296-10.405 9.447-10.519 12.454-11.649 16.032L-10.519 17.177-2.94 9.59V8.875C-5.542 6.728-5.542 6.012-5.542 .143-5.542-5.01-5.655-30.919-5.542-36.645H4.298L7.464-32.35C7.917-31.778 8.256-31.062 8.708-31.062 9.16-31.062 9.952-31.778 10.179-32.207L14.363-37.646C14.815-38.362 15.607-39.078 15.607-39.364 15.607-40.223 14.59-40.223 13.798-40.223H-5.542C-5.09-60.263-4.977-68.279-2.828-78.156 0-70.57 5.315-55.969 4.298-44.947L5.429-44.231 11.762-52.104V-52.962C10.404-53.678 9.16-54.68 8.143-57.973 2.714-75.15 2.148-77.011-1.244-84.455 2.714-96.764 9.273-103.206 10.631-103.206 11.536-103.206 11.536-102.061 11.648-100.343 11.988-96.622 13.571-74.434 13.685-72.716L15.607-72.86C15.494-80.446 15.494-95.762 16.286-104.208 16.512-106.211 17.19-112.224 17.19-113.083 17.19-113.656 16.738-113.798 16.173-113.798 14.363-113.798 2.714-107.214-3.959-90.037-9.5-99.484-11.084-102.204-22.733-114.8ZM-59.603-67.563H-74.645008V-94.618007H-59.603ZM-79.734 5.296H-61.073L-58.359 9.304C-58.02 9.877-57.454 10.593-57.115 10.593-56.775 10.593-56.21 9.877-55.645 9.304L-51.347 4.437C-50.895 3.865-50.216 3.149-50.216 2.72-50.216 1.718-51.008 1.718-52.025 1.718H-65.937C-72.723 1.718-75.21 1.002-76.681 .573ZM-80.639-45.806H-62.77L-60.056-41.368C-59.716-40.796-59.15-40.08-58.812-40.08-58.472-40.08-57.907-40.652-57.341-41.225L-52.704-46.665C-52.139-47.237-51.46-48.096-51.46-48.382-51.46-49.241-52.365-49.384-53.27-49.384H-66.955C-72.609-49.384-75.098-49.67-77.699-50.386ZM-74.645-98.196C-74.645-100.057-74.758-113.083-76.455-113.083-77.359-113.083-80.752-101.631-81.544-99.627-79.395-96.478-78.717-93.616-78.717-78.156-78.717-68.279-78.943-63.841-80.413-58.116L-79.056-56.971-74.419-63.985H-61.073L-59.264-59.977C-58.812-59.118-58.359-58.259-57.793-58.259-57.115-58.259-56.323-59.118-56.097-59.404L-53.27-61.981C-52.591-62.553-52.025-63.269-52.025-63.699-52.025-64.271-52.704-64.987-53.27-65.417L-55.305-67.277V-98.768C-55.305-104.065-57.793-107.643-58.246-107.643-58.698-107.643-58.924-107.071-59.377-105.209L-61.073-98.196ZM-81.771-29.487H-63.109L-59.829-25.336C-59.49-24.907-58.924-24.048-58.585-24.048-58.246-24.048-57.567-24.764-57.115-25.336L-53.043-30.346C-52.704-30.776-51.912-31.778-51.912-32.207-51.912-33.066-52.817-33.066-53.722-33.066H-68.085C-74.871-33.066-77.359-33.782-78.83-34.211ZM-88.217-12.74H-59.15L-56.323-8.588C-55.871-8.016-55.418-7.3-55.079-7.3-54.627-7.3-54.174-7.729-53.609-8.445L-48.746-13.742C-48.18-14.314-47.615-15.03-47.615-15.316-47.615-16.318-48.52-16.318-49.311-16.318H-74.419C-80.979-16.318-83.467-16.891-85.163-17.463Z"/>
<path transform="matrix(1,0,0,-1,-212.20209,497.6211)" d="M817.071 430.098H834.149V470.89399H817.071ZM786.648 357.811C805.196 375.275 812.435 388.443 812.321 426.52H807.232C800.673 426.52 798.071 425.804 796.375 425.374L793.435 430.098H812.321V470.894C804.857 470.894 802.595 470.178 800.56 469.749L797.619 474.472H842.632L845.572 479.912C845.912 480.484 846.364 481.343 846.816 481.343 847.156 481.343 848.174 480.341 848.513 479.912L853.941 474.186C854.507 473.613 855.186 472.898 855.186 472.182 855.186 471.18 854.281 470.894 853.489 470.894H838.786V430.098H846.478L849.305 435.537C849.644 436.11 850.097 436.969 850.549 436.969 850.775 436.969 851.453 436.396 852.132 435.681L857.674 429.812C858.239 429.239 858.918 428.524 858.918 427.808 858.918 426.806 857.9 426.52 857.222 426.52H838.786V374.701C838.786 361.818 838.786 356.093 837.655 356.093 836.524 356.093 832.001 368.833 831.548 370.121 833.019 371.409 834.149 372.411 834.149 382.432V426.52H816.959C816.393 403.616 815.488 375.275 787.439 356.523ZM771.72 391.879H787.66598V434.535H771.72ZM785.97 438.114 787.893 442.122C788.231 442.838 788.684 443.553 789.25 443.553 789.702 443.553 790.72 442.694 791.398 442.122L794 439.832C794.565 439.402 795.356 438.544 795.356 438.114 795.356 437.828 795.244 437.685 794 436.253L791.851 433.819C791.851 426.949 792.19 396.459 792.19 390.305 792.19 385.724 791.059 378.28 789.815 378.28 789.137 378.28 786.648 386.582 786.083 388.3H771.832C771.832 385.867 771.832 371.983 771.041 371.983 770.022 371.983 766.178 381.286 765.386 383.434 766.969 385.58 767.761 390.447 767.874 398.893 767.987 410.774 768.101 418.217 768.101 428.953 765.272 421.796 760.862 410.631 753.624 401.326L752.492 402.472C760.07 415.211 769.91 437.971 774.773 469.892H769.57C762.672 469.892 760.297 469.033 758.826 468.747L755.772 473.327H784.387L786.874 477.908C787.439 478.91 788.118 479.912 788.345 479.912 788.684 479.912 789.362 479.053 790.381 477.908L794.565 473.184C795.356 472.325 795.583 471.466 795.583 471.18 795.583 470.321 794.452 469.892 793.773 469.892H779.523C777.035 457.009 775.112 449.709 771.38 438.114Z"/>
<path transform="matrix(1,0,0,-1,7.9673159,86.53989)" d="M0 0V-3.283H-1.895V5.526H.015V2.271H8.419V0Z"/>
<path transform="matrix(1,0,0,-1,11.960007,72.04428)" d="M0 0V-4.788H4.397V-7H-5.96V-4.788H-2.213V0H-5.931V2.228H4.397V0Z"/>
<path transform="matrix(1,0,0,-1,12.263718,65.316287)" d="M0 0H2.199V5.83H4.108V-2.199H-6.249V5.337H-4.34V0H-2.011V4.716H0Z"/>
<path transform="matrix(1,0,0,-1,247.65631,137.69709)" d="M0 0C0-2.893-2.343-5.236-5.236-5.236-8.101-5.236-10.473-2.893-10.473 0-10.473 1.982-9.374 3.66-7.797 4.542-7.334 3.66-7.291 3.588-6.813 2.604-7.695 2.098-8.303 1.114-8.303 0-8.303-1.692-6.915-3.066-5.236-3.066-3.544-3.066-2.169-1.692-2.169 0-2.169 1.157-2.792 2.17-3.775 2.69-3.269 3.675-3.211 3.703-2.792 4.629-1.128 3.747 0 2.04 0 0"/>
<path transform="matrix(1,0,0,-1,242.42002,129.34848)" d="M0 0C1.721 0 3.153 1.433 3.153 3.153 3.153 4.875 1.721 6.278 0 6.278-1.721 6.278-3.168 4.875-3.168 3.153-3.168 1.433-1.721 0 0 0M5.338 3.153C5.338 .203 2.951-2.184 0-2.184-2.965-2.184-5.352 .203-5.352 3.153-5.352 6.09-2.965 8.506 0 8.506 2.951 8.506 5.338 6.09 5.338 3.153"/>
<path transform="matrix(1,0,0,-1,240.49613,116.89148)" d="M0 0H7.146V-1.981H-3.226V.622L3.226 5.236H-3.226V7.16H7.146V5.236Z"/>
<path transform="matrix(1,0,0,-1,244.56113,105.53409)" d="M0 0C1.359 .231 1.547 1.446 1.547 2.285 1.547 3.081 1.316 4.296 .26 4.296-1.938 4.296-.521-1.852-4.383-1.852-6.51-1.852-7.508 .145-7.508 2.011-7.508 4.166-6.567 6.147-4.181 6.147L-4.499 3.949C-5.7 3.674-5.743 2.618-5.743 1.909-5.743 1.187-5.439 .347-4.571 .347-3.805 .347-3.631 .839-3.009 3.429-2.821 4.195-2.344 6.495 0 6.495 1.895 6.495 3.313 5.02 3.313 2.198 3.313-.116 2.184-2.198-.362-2.198Z"/>
<path transform="matrix(1,0,0,-1,247.65631,92.1376)" d="M0 0C0-2.893-2.343-5.236-5.236-5.236-8.101-5.236-10.473-2.893-10.473 0-10.473 1.982-9.374 3.66-7.797 4.542-7.334 3.66-7.291 3.588-6.813 2.604-7.695 2.098-8.303 1.114-8.303 0-8.303-1.692-6.915-3.066-5.236-3.066-3.544-3.066-2.169-1.692-2.169 0-2.169 1.157-2.792 2.17-3.775 2.69-3.269 3.675-3.211 3.703-2.792 4.629-1.128 3.747 0 2.04 0 0"/>
<path transform="matrix(1,0,0,-1,-212.20209,497.6211)" d="M449.501 414.656H459.829V412.385H449.501Z"/>
<path transform="matrix(1,0,0,-1,242.42002,78.654209)" d="M0 0C1.721 0 3.153 1.432 3.153 3.153 3.153 4.875 1.721 6.278 0 6.278-1.721 6.278-3.168 4.875-3.168 3.153-3.168 1.432-1.721 0 0 0M5.338 3.153C5.338 .203 2.951-2.184 0-2.184-2.965-2.184-5.352 .203-5.352 3.153-5.352 6.089-2.965 8.505 0 8.505 2.951 8.505 5.338 6.089 5.338 3.153"/>
<path transform="matrix(1,0,0,-1,243.72171,59.210786)" d="M0 0C2.792 0 4.152-1.649 4.152-4.412 4.152-7.204 2.821-8.81 0-8.81H-6.422V-6.539H0C1.128-6.539 2.242-6.249 2.242-4.412 2.242-2.792 1.548-2.271 0-2.271H-6.422V0Z"/>
<path transform="matrix(1,0,0,-1,244.56113,54.8407)" d="M0 0C1.359 .231 1.547 1.447 1.547 2.286 1.547 3.081 1.316 4.296 .26 4.296-1.938 4.296-.521-1.852-4.383-1.852-6.51-1.852-7.508 .145-7.508 2.011-7.508 4.166-6.567 6.148-4.181 6.148L-4.499 3.949C-5.7 3.674-5.743 2.618-5.743 1.91-5.743 1.186-5.439 .347-4.571 .347-3.805 .347-3.631 .839-3.009 3.428-2.821 4.195-2.344 6.495 0 6.495 1.895 6.495 3.313 5.02 3.313 2.199 3.313-.116 2.184-2.199-.362-2.199Z"/>
<path transform="matrix(1,0,0,-1,240.49613,44.3519)" d="M0 0H7.146V-1.982H-3.226V.622L3.226 5.236H-3.226V7.16H7.146V5.236Z"/>
<path transform="matrix(1,0,0,-1,243.50492,32.6044)" d="M0 0H2.199V5.83H4.108V-2.199H-6.249V5.337H-4.34V0H-2.011V4.716H0Z"/>
<path transform="matrix(1,0,0,-1,244.56113,22.752289)" d="M0 0C1.359 .231 1.547 1.446 1.547 2.286 1.547 3.081 1.316 4.296 .26 4.296-1.938 4.296-.521-1.852-4.383-1.852-6.51-1.852-7.508 .145-7.508 2.011-7.508 4.166-6.567 6.148-4.181 6.148L-4.499 3.949C-5.7 3.674-5.743 2.618-5.743 1.909-5.743 1.186-5.439 .347-4.571 .347-3.805 .347-3.631 .839-3.009 3.428-2.821 4.195-2.344 6.495 0 6.495 1.895 6.495 3.313 5.02 3.313 2.199 3.313-.116 2.184-2.199-.362-2.199Z"/>
<path transform="matrix(1,0,0,-1,244.56113,12.494995)" d="M0 0C1.359 .231 1.547 1.447 1.547 2.286 1.547 3.081 1.316 4.296 .26 4.296-1.938 4.296-.521-1.852-4.383-1.852-6.51-1.852-7.508 .145-7.508 2.011-7.508 4.166-6.567 6.148-4.181 6.148L-4.499 3.949C-5.7 3.674-5.743 2.618-5.743 1.91-5.743 1.186-5.439 .347-4.571 .347-3.805 .347-3.631 .839-3.009 3.428-2.821 4.195-2.344 6.495 0 6.495 1.895 6.495 3.313 5.02 3.313 2.199 3.313-.116 2.184-2.199-.362-2.199Z"/>
<path transform="matrix(1,0,0,-1,470.3047,115.344608)" d="M0 0H3.11V1.766C3.11 2.851 2.864 3.747 1.548 3.747 .202 3.747 0 2.851 0 1.766ZM4.745 3.603 8.578 6.495V3.718L4.86 1.114V0H8.578V-2.285H-1.765V2.373C-1.765 4.977-.13 5.975 1.548 5.975 2.951 5.975 4.368 5.237 4.745 3.516Z"/>
<path transform="matrix(1,0,0,-1,474.74525,104.37781)" d="M0 0H2.199V5.829H4.108V-2.199H-6.249V5.338H-4.339V0H-2.01V4.716H0Z"/>
<path transform="matrix(1,0,0,-1,475.80183,94.5253)" d="M0 0C1.359 .231 1.548 1.446 1.548 2.285 1.548 3.081 1.316 4.296 .26 4.296-1.938 4.296-.521-1.852-4.383-1.852-6.51-1.852-7.508 .145-7.508 2.011-7.508 4.166-6.567 6.147-4.181 6.147L-4.499 3.949C-5.699 3.674-5.743 2.618-5.743 1.909-5.743 1.187-5.439 .348-4.571 .348-3.805 .348-3.631 .839-3.009 3.429-2.821 4.195-2.344 6.495 0 6.495 1.895 6.495 3.313 5.02 3.313 2.199 3.313-.115 2.184-2.199-.362-2.199Z"/>
<path transform="matrix(1,0,0,-1,474.74525,83.8768)" d="M0 0H2.199V5.829H4.108V-2.199H-6.249V5.338H-4.339V0H-2.01V4.716H0Z"/>
<path transform="matrix(1,0,0,-1,470.49324,70.6976)" d="M0 0 3.992-1.736V1.692L0 .014ZM8.375-5.858-1.938-1.172V1.114L8.375 5.728V3.529L6.09 2.517V-2.705L8.375-3.79Z"/>
<path transform="matrix(1,0,0,-1,470.3047,60.743989)" d="M0 0H3.11V1.765C3.11 2.85 2.864 3.747 1.548 3.747 .202 3.747 0 2.85 0 1.765ZM4.745 3.602 8.578 6.495V3.717L4.86 1.114V0H8.578V-2.286H-1.765V2.372C-1.765 4.976-.13 5.974 1.548 5.974 2.951 5.974 4.368 5.236 4.745 3.515Z"/>
<path transform="matrix(1,0,0,-1,478.89753,47.029207)" d="M0 0C0-2.893-2.344-5.237-5.236-5.237-8.101-5.237-10.474-2.893-10.474 0-10.474 1.981-9.374 3.66-7.797 4.542-7.334 3.66-7.291 3.587-6.813 2.604-7.696 2.097-8.304 1.114-8.304 0-8.304-1.693-6.915-3.067-5.236-3.067-3.544-3.067-2.17-1.693-2.17 0-2.17 1.157-2.792 2.169-3.775 2.69-3.27 3.674-3.212 3.703-2.792 4.629-1.129 3.747 0 2.04 0 0"/>
<path transform="matrix(1,0,0,-1,474.44154,33.3295)" d="M0 0V-4.788H4.397V-7.001H-5.959V-4.788H-2.213V0H-5.931V2.228H4.397V0Z"/>
<path transform="matrix(1,0,0,-1,708.18466,122.5419)" d="M0 0H1.924V-2.199H-8.448V5.338H-6.538V0H-4.209V4.716H-2.199V0Z"/>
<path transform="matrix(1,0,0,-1,704.9014,113.58679)" d="M0 0C1.721 0 3.153 1.433 3.153 3.153 3.153 4.875 1.721 6.278 0 6.278-1.722 6.278-3.168 4.875-3.168 3.153-3.168 1.433-1.722 0 0 0M5.337 3.153C5.337 .203 2.95-2.184 0-2.184-2.966-2.184-5.353 .203-5.353 3.153-5.353 6.09-2.966 8.506 0 8.506 2.95 8.506 5.337 6.09 5.337 3.153"/>
<path transform="matrix(1,0,0,-1,706.2032,94.1434)" d="M0 0C2.791 0 4.151-1.648 4.151-4.411 4.151-7.203 2.82-8.809 0-8.809H-6.423V-6.538H0C1.128-6.538 2.242-6.249 2.242-4.411 2.242-2.791 1.548-2.271 0-2.271H-6.423V0Z"/>
<path transform="matrix(1,0,0,-1,702.9766,89.54089)" d="M0 0H7.146V-1.981H-3.226V.622L3.227 5.236H-3.226V7.16H7.146V5.236Z"/>
<path transform="matrix(1,0,0,-1,708.19937,77.4603)" d="M0 0V2.024C0 3.341-.811 4.6-3.096 4.6-5.179 4.6-6.51 3.862-6.51 1.62V0ZM-8.419-2.271V2.184C-8.419 4.86-6.727 6.871-3.313 6.871-.318 6.871 1.909 5.337 1.909 2.184V-2.271Z"/>
<path transform="matrix(1,0,0,-1,701.7334,63.268404)" d="M0 0 3.992-1.736V1.692L0 .014ZM8.375-5.858-1.938-1.172V1.114L8.375 5.728V3.529L6.09 2.517V-2.705L8.375-3.79Z"/>
<path transform="matrix(1,0,0,-1,701.6895,52.98178)" d="M0 0V-3.284H-1.895V5.526H.015V2.271H8.419V0Z"/>
<path transform="matrix(1,0,0,-1,-212.20209,497.6211)" d="M911.982 454.607H922.31V452.336H911.982Z"/>
<path transform="matrix(1,0,0,-1,704.9014,38.701997)" d="M0 0C1.721 0 3.153 1.432 3.153 3.153 3.153 4.875 1.721 6.278 0 6.278-1.722 6.278-3.168 4.875-3.168 3.153-3.168 1.432-1.722 0 0 0M5.337 3.153C5.337 .202 2.95-2.185 0-2.185-2.966-2.185-5.353 .202-5.353 3.153-5.353 6.09-2.966 8.505 0 8.505 2.95 8.505 5.337 6.09 5.337 3.153"/>
<path transform="matrix(1,0,0,-1,702.9766,26.245484)" d="M0 0H7.146V-1.982H-3.226V.622L3.227 5.236H-3.226V7.16H7.146V5.236Z"/>
<path transform="matrix(1,0,0,-1,7.8370058,189.96079)" d="M0 0H702.518"/>
<path transform="matrix(1,0,0,-1,7.8370058,189.96079)" stroke-width=".7" stroke-linecap="butt" stroke-miterlimit="10" stroke-linejoin="miter" fill="none" stroke="currentColor" d="M0 0H702.518"/>
<path transform="matrix(1,0,0,-1,7.8370058,-36.295595)" d="M0 0H702.518"/>
<path transform="matrix(1,0,0,-1,7.8370058,-36.295595)" stroke-width=".7" stroke-linecap="butt" stroke-miterlimit="10" stroke-linejoin="miter" fill="none" stroke="currentColor" d="M0 0H702.518"/>
</g>
</g>
</g>
</svg>
